<?xml version="1.0"?>
<svg width="64" height="64" xmlns="http://www.w3.org/2000/svg" xmlns:svg="http://www.w3.org/2000/svg">
 <defs>
  <pattern height="6" id="EMFhbasepattern" patternUnits="userSpaceOnUse" width="6" x="0" y="0"/>
  <pattern height="6" id="EMFhbasepattern-9" patternUnits="userSpaceOnUse" width="6" x="0" y="0"/>
  <pattern height="6" id="EMFhbasepattern-0" patternUnits="userSpaceOnUse" width="6" x="0" y="0"/>
  <pattern height="6" id="EMFhbasepattern-7" patternUnits="userSpaceOnUse" width="6" x="0" y="0"/>
  <pattern height="6" id="EMFhbasepattern-2" patternUnits="userSpaceOnUse" width="6" x="0" y="0"/>
  <pattern height="6" id="EMFhbasepattern-98" patternUnits="userSpaceOnUse" width="6" x="0" y="0"/>
  <pattern height="6" id="EMFhbasepattern-6" patternUnits="userSpaceOnUse" width="6" x="0" y="0"/>
  <pattern height="6" id="EMFhbasepattern-01" patternUnits="userSpaceOnUse" width="6" x="0" y="0"/>
  <pattern height="6" id="EMFhbasepattern-07" patternUnits="userSpaceOnUse" width="6" x="0" y="0"/>
  <pattern height="6" id="EMFhbasepattern-8" patternUnits="userSpaceOnUse" width="6" x="0" y="0"/>
  <pattern height="6" id="EMFhbasepattern-4" patternUnits="userSpaceOnUse" width="6" x="0" y="0"/>
  <pattern height="6" id="EMFhbasepattern-40" patternUnits="userSpaceOnUse" width="6" x="0" y="0"/>
  <pattern height="6" id="EMFhbasepattern-08" patternUnits="userSpaceOnUse" width="6" x="0" y="0"/>
  <pattern height="6" id="EMFhbasepattern-04" patternUnits="userSpaceOnUse" width="6" x="0" y="0"/>
  <pattern height="6" id="EMFhbasepattern-014" patternUnits="userSpaceOnUse" width="6" x="0" y="0"/>
  <pattern height="6" id="EMFhbasepattern-27" patternUnits="userSpaceOnUse" width="6" x="0" y="0"/>
  <pattern height="6" id="EMFhbasepattern-09" patternUnits="userSpaceOnUse" width="6" x="0" y="0"/>
  <pattern height="6" id="EMFhbasepattern-5" patternUnits="userSpaceOnUse" width="6" x="0" y="0"/>
  <pattern height="6" id="EMFhbasepattern-018" patternUnits="userSpaceOnUse" width="6" x="0" y="0"/>
  <pattern height="6" id="EMFhbasepattern-3" patternUnits="userSpaceOnUse" width="6" x="0" y="0"/>
 </defs>
 <metadata id="metadata828">image/svg+xml</metadata>
 <g class="layer">
  <title>Layer 1</title>
  <g id="layer1" transform="translate(-2.4835629,-276.88095)">
   <g display="inline" id="g98552" stroke-width="0.268349" transform="matrix(3.7239483,0,0,3.7290602,230.16084,391.05553)">
    <g id="g98534" stroke-width="0.268349">
     <path d="m-47.279781,-25.922991l0,-3.18359l-2.611328,0l0,1.980471l2.611328,1.203119z" fill="#e2f0fa" id="path3152" stroke-linecap="round" stroke-linejoin="round" stroke-width="0.268349"/>
     <path d="m-52.369621,-28.329241l-6.917969,3.992191a0.26461,0.26461 0 0 0 -0.132809,0.230469l0,9.84961a0.26461,0.26461 0 0 0 0.263668,0.26562l13.234371,0a0.26461,0.26461 0 0 0 0.265629,-0.26562l0,-9.84961a0.26461,0.26461 0 0 0 -0.123051,-0.224609l-6.316399,-3.994141a0.26461,0.26461 0 0 0 -0.273441,-0.003899l0,-0.000011z" fill="#e2f0fa" id="path3524" stroke-linecap="round" stroke-linejoin="round" stroke-width="0.268349"/>
     <path d="m-52.904781,-29.253071l-7.392578,4.269531c-0.297161,0.17157 -0.402031,0.55831 -0.230461,0.855469l0.300781,0.519531c0.17157,0.297159 0.5583,0.400089 0.855469,0.228519l6.832031,-3.943359l6.832027,3.943359c0.297153,0.17156 0.685852,0.068701 0.857422,-0.228519l0.298828,-0.519531c0.171562,-0.297169 0.068653,-0.683899 -0.228519,-0.855469l-7.394527,-4.269531c-0.225639,-0.13023 -0.504829,-0.13023 -0.730473,0z" fill="#dc1c4b" id="path3518" stroke-linecap="round" stroke-linejoin="round" stroke-width="0.268349"/>
     <path d="m-55.979,-14.25697l0,-1.851569c0.000568,-0.146931 -0.11869,-0.26618 -0.265621,-0.265621l-3.705078,0c-0.146931,-0.000559 -0.26619,0.11869 -0.265621,0.265621l0,1.851569l4.23632,0z" fill="#143441" id="path12369" stroke-linecap="round" stroke-linejoin="round" stroke-width="0.268349"/>
     <path d="m-58.16259,-22.194469a0.26461,0.26461 0 0 0 -0.265629,0.265619l0,2.91016a0.26461,0.26461 0 0 0 0.265629,0.26367l2.77734,0a0.26461,0.26461 0 0 0 0.265629,-0.26367l0,-2.91016a0.26461,0.26461 0 0 0 -0.265629,-0.265619l-2.77734,0z" fill="#70c2ef" id="path5325" stroke-linecap="round" stroke-linejoin="round" stroke-width="0.268349"/>
     <path d="m-57.037571,-22.1943l0,1.454689l-1.390617,0l0,0.52969l1.390617,0l0,1.454691l0.52916,0l0,-1.454691l1.38855,0l0,-0.52969l-1.38855,0l0,-1.454689l-0.52916,0z" fill="#e2f0fa" id="path5320" stroke-linecap="round" stroke-linejoin="round" stroke-width="0.268349"/>
     <path d="m-53.859859,-22.190571c-0.290939,0 -0.53125,0.24032 -0.53125,0.53125l0,6.343751a0.26461,0.26461 0 0 0 0.26368,0.26563l3.175781,0a0.26461,0.26461 0 0 0 0.265617,-0.26563l0,-6.343751c0,-0.29093 -0.24226,-0.53125 -0.533199,-0.53125l-2.640629,0z" fill="#3a4d5c" id="path8923" stroke-linecap="round" stroke-linejoin="round" stroke-width="0.268349"/>
     <path d="m-54.129391,-15.57924c-0.434128,0 -0.791008,0.35689 -0.791008,0.791019l0,0.53125a0.26461,0.26461 0 0 0 0.263668,0.26562l4.234379,0a0.26461,0.26461 0 0 0 0.265621,-0.26562l0,-0.53125c0,-0.43413 -0.358841,-0.791019 -0.792969,-0.791019l-3.179691,0z" fill="#a3b9c9" id="path9119" stroke-linecap="round" stroke-linejoin="round" stroke-width="0.268349"/>
     <path d="m-49.62743,-30.08119c-0.289371,0 -0.529301,0.23992 -0.529301,0.529289l0,0.478521c0,0.28937 0.239929,0.529299 0.529301,0.529299l2.11718,0c0.289371,0 0.529301,-0.239929 0.529301,-0.529299l0,-0.478521c0,-0.28937 -0.239929,-0.529289 -0.529301,-0.529289l-2.11718,0z" fill="#dc1c4b" id="path3158" stroke-linecap="round" stroke-linejoin="round" stroke-width="0.268349"/>
     <path d="m-49.69775,-22.194469a0.26461,0.26461 0 0 0 -0.265621,0.265619l0,2.91016a0.26461,0.26461 0 0 0 0.265621,0.26367l2.777351,0a0.26461,0.26461 0 0 0 0.265617,-0.26367l0,-2.91016a0.26461,0.26461 0 0 0 -0.265617,-0.265619l-2.777351,0z" fill="#70c2ef" id="path5645" stroke-linecap="round" stroke-linejoin="round" stroke-width="0.268349"/>
     <path d="m-56.24461,-15.31578c0.546471,0 0.911369,-0.41868 0.947231,-0.84801c0.031399,-0.37532 -0.16375,-0.782921 -0.551392,-0.973061c-0.07,-0.390379 -0.356159,-0.676559 -0.683159,-0.79014l0,-0.00053c-0.2892,-0.100439 -0.61684,-0.090199 -0.902271,0.0434c-0.178551,-0.192699 -0.428898,-0.293999 -0.681622,-0.292999c-0.246189,0.005001 -0.40638,0.30345 -0.659897,0.333031c-0.31073,0.036259 -0.6068,-0.18432 -0.892971,-0.08494c-0.32584,0.113089 -0.60783,0.401159 -0.67696,0.7922c-0.387691,0.190069 -0.582691,0.597689 -0.551392,0.973059c0.035801,0.42938 0.4007,0.848011 0.947231,0.848011l3.7052,-0.00002z" fill="#9ccc65" id="path13795" stroke-linecap="round" stroke-linejoin="round" stroke-width="0.268349"/>
     <path d="m-44.863762,-14.25697l0,-1.851569c0.000561,-0.14617 -0.117496,-0.2651 -0.263668,-0.265621l-3.707031,0c-0.146168,0.000521 -0.26424,0.119452 -0.26368,0.265621l0,1.851569l4.234379,0z" fill="#143441" id="path12375" stroke-linecap="round" stroke-linejoin="round" stroke-width="0.268349"/>
     <path d="m-45.128269,-15.31578c0.546471,0 0.911369,-0.41868 0.947227,-0.84801c0.031403,-0.37532 -0.16375,-0.782921 -0.551388,-0.973061c-0.07,-0.390379 -0.356159,-0.676559 -0.683159,-0.79014l0,-0.00053c-0.2892,-0.100439 -0.61684,-0.090199 -0.902271,0.0434c-0.178551,-0.192699 -0.428902,-0.293999 -0.681622,-0.292999c-0.246189,0.005001 -0.487457,0.107401 -0.659901,0.295589c-0.282139,-0.135149 -0.606796,-0.146879 -0.892967,-0.047499c-0.32584,0.113089 -0.60783,0.401159 -0.67696,0.7922c-0.387691,0.190069 -0.582691,0.597689 -0.551392,0.973059c0.035801,0.42938 0.4007,0.848011 0.947231,0.848011l3.7052,-0.00002z" fill="#9ccc65" id="path127889" stroke-linecap="round" stroke-linejoin="round" stroke-width="0.268349"/>
     <path d="m-52.539539,-24.839001c0.441708,0 0.794918,0.353201 0.794918,0.79492c0,0.4417 -0.35321,0.79492 -0.794918,0.79492c-0.441711,0 -0.792973,-0.35322 -0.792973,-0.79492c0,-0.441719 0.351254,-0.79492 0.792973,-0.79492z" fill="#70c2ef" id="path4084" stroke-linecap="round" stroke-linejoin="round" stroke-width="0.268349"/>
     <path d="m-46.326889,-17.879009c-0.17577,-0.18898 -0.416672,-0.2959 -0.657322,-0.296631c-0.243938,-0.00074 -0.488728,0.107719 -0.6656,0.29973c-0.28463,-0.139 -0.61375,-0.152 -0.902779,-0.05168c-0.327702,0.113739 -0.61145,0.404449 -0.678509,0.79891c-0.33588,0.171919 -0.536293,0.50498 -0.55191,0.835609c-0.011223,0.2374 0.060207,0.4796 0.224277,0.66818c0.113731,0.13072 0.273453,0.22924 0.460953,0.2775l0,0.82579l-1.058331,0l0,-0.26562c0,-0.34201 -0.2229,-0.63681 -0.52969,-0.74672l0,-6.124169c0,-0.290941 -0.24184,-0.53331 -0.53278,-0.53331l-2.640671,0c-0.290939,0 -0.533302,0.242369 -0.533302,0.53331l0,6.124169c-0.306549,0.110041 -0.52916,0.404881 -0.52916,0.74672l0,0.26562l-1.058849,0l0,-0.82579c0.1875,-0.04827 0.347221,-0.14678 0.460949,-0.2775c0.16407,-0.18858 0.236012,-0.430779 0.224792,-0.66818c-0.01561,-0.33058 -0.216129,-0.66367 -0.551903,-0.835609c-0.067059,-0.39447 -0.350807,-0.685171 -0.678509,-0.79891c-0.289009,-0.100321 -0.618179,-0.087271 -0.90279,0.05168c-0.176868,-0.192051 -0.421631,-0.300461 -0.665588,-0.29973c-0.24091,0.00075 -0.48201,0.10779 -0.65733,0.29714c-0.045593,-0.02179 -0.092041,-0.040831 -0.139523,-0.05633l0,-5.721611l6.351551,-3.66799l6.351551,3.66799l0,4.90048c-0.00053,0.14694 0.118679,0.26619 0.26561,0.26561c0.146179,-0.0005 0.26413,-0.11944 0.26355,-0.26561l0,-4.598169c0.289631,0.134541 0.64642,0.02795 0.808739,-0.25322l0.298691,-0.519861c0.17157,-0.297169 0.066681,-0.68368 -0.23048,-0.855249l-2.498039,-1.442801l0,-2.17145c0.17606,-0.08658 0.298698,-0.26825 0.298698,-0.47542l0,-0.478519c0,-0.28937 -0.239811,-0.52969 -0.529171,-0.52969l-2.117188,0c-0.28936,0 -0.52916,0.24032 -0.52916,0.52969l0,0.478519c0,0.193081 0.106499,0.363831 0.26355,0.456301l0,0.68162l-2.281521,-1.317751c-0.225639,-0.130239 -0.504551,-0.130239 -0.730179,0l-7.392841,4.269501c-0.297161,0.17157 -0.402039,0.558081 -0.230469,0.855249l0.299198,0.519861c0.162331,0.281139 0.518589,0.38776 0.80822,0.25322l0,5.370729c-0.083111,0.01074 -0.165028,0.029961 -0.243908,0.05736c-0.32856,0.11412 -0.613689,0.403101 -0.68161,0.796331c-0.336533,0.17161 -0.537292,0.505339 -0.55294,0.836639c-0.011219,0.2374 0.060719,0.4796 0.224789,0.66818c0.113319,0.13024 0.272289,0.22853 0.458889,0.27699l0,0.826301l-0.26355,0c-0.146927,-0.00058 -0.26619,0.11869 -0.265617,0.26562c0.00053,0.146119 0.119499,0.264119 0.265617,0.26355l15.87862,0c0.14632,0.00085 0.26556,-0.11722 0.266132,-0.26355c0.00053,-0.147141 -0.118999,-0.26648 -0.266132,-0.26562l-0.26355,0l0,-0.826301c0.18679,-0.04842 0.345482,-0.146649 0.458893,-0.27699c0.164059,-0.18858 0.235996,-0.430779 0.224789,-0.66818c-0.01564,-0.331301 -0.2159,-0.66503 -0.552422,-0.836639c-0.067921,-0.39324 -0.353569,-0.681702 -0.682129,-0.79607c-0.29208,-0.101711 -0.624672,-0.090691 -0.912609,0.04677zm-1.182873,-11.67164l0,0.478519l-2.117188,0l0,-0.478519l2.117188,0zm-5.029148,0.7307c0.035118,0 0.069962,0.008801 0.10128,0.026871c2.689049,1.55349 4.700439,2.71324 7.39283,4.267439c0.04948,0.02857 0.063709,0.085381 0.035141,0.13488l-0.298691,0.517801c-0.02858,0.0495 -0.083309,0.063719 -0.132809,0.035139l-6.964951,-4.0194c-0.08213,-0.047661 -0.183491,-0.047661 -0.26561,0l-6.964951,4.0194c-0.049492,0.02857 -0.10424,0.014351 -0.132813,-0.035139l-0.298687,-0.517801c-0.02858,-0.04949 -0.014343,-0.1063 0.035137,-0.13488l7.392311,-4.267439c0.03133,-0.018101 0.066689,-0.026871 0.101799,-0.026871l0.000011,0zm3.17551,0.276991l1.554951,0l0,1.812288l-1.554951,-0.89814l0,-0.914148zm-3.17551,1.853119c-0.046638,-0.000031 -0.092449,0.01228 -0.132809,0.03566l-1.818501,1.050581c-0.12672,0.072769 -0.170452,0.234499 -0.097672,0.36121c0.073311,0.126169 0.234909,0.16917 0.361221,0.096119l1.687748,-0.973059l1.687241,0.973059c0.126312,0.07304 0.28791,0.030041 0.361221,-0.096119c0.072781,-0.126711 0.029049,-0.288441 -0.097672,-0.36121l-1.817978,-1.050581c-0.040352,-0.02339 -0.08617,-0.035679 -0.132813,-0.03566l0.000011,0zm0,1.322401c-0.727699,-0.000011 -1.324471,0.59676 -1.324471,1.324459c0,0.72769 0.596771,1.322401 1.324471,1.322401c0.727692,0 1.323952,-0.594711 1.323952,-1.322401c0,-0.727699 -0.59626,-1.324459 -1.323952,-1.324459zm-0.02066,0.529678c0.006901,-0.00017 0.01376,0 0.02066,0c0.441711,0 0.794781,0.353062 0.794781,0.794781c0,0.44171 -0.353069,0.79324 -0.794781,0.79324c-0.441711,0 -0.7953,-0.35153 -0.7953,-0.79324c0,-0.43482 0.342598,-0.783979 0.774628,-0.794781l0.000011,0zm-5.53817,1.585951c-0.146118,0.00058 -0.264118,0.11949 -0.26355,0.265619c0.00053,0.145311 0.118229,0.262981 0.26355,0.26354l2.646351,0c0.14613,0.000591 0.265049,-0.11742 0.265621,-0.26354c0.000526,-0.146938 -0.11869,-0.266199 -0.265621,-0.265619l-2.646351,0zm8.465118,0c-0.146328,0.00029 -0.264637,0.119289 -0.264069,0.265619c0.00053,0.145521 0.118549,0.26326 0.264069,0.26354l2.646351,0c0.14613,0.000591 0.265053,-0.11742 0.265621,-0.26354c0.00053,-0.146938 -0.11869,-0.266199 -0.265621,-0.265619l-2.646351,0zm-8.728668,1.058331c-0.146118,-0.00058 -0.265049,0.11743 -0.26561,0.26355c-0.00024,0.12104 0.081699,0.22681 0.198948,0.25683l0,2.398819c-0.11726,0.03002 -0.199188,0.13579 -0.198948,0.25684c0.00053,0.14612 0.119492,0.26412 0.26561,0.263552l3.175522,0c0.145519,-0.000301 0.263496,-0.118031 0.264069,-0.263552c0.00053,-0.1206 -0.080761,-0.226219 -0.197411,-0.25684l0,-2.398819c0.11665,-0.030621 0.197819,-0.13623 0.197411,-0.25683c-0.00053,-0.145521 -0.118549,-0.263269 -0.264069,-0.26355l-3.175522,0zm8.4646,0c-0.146118,-0.00058 -0.265049,0.11743 -0.26561,0.26355c-0.000179,0.121189 0.082008,0.227009 0.199471,0.25683l0,2.398819c-0.11747,0.029821 -0.19965,0.135651 -0.199471,0.25684c0.000519,0.14612 0.119492,0.26412 0.26561,0.263552l3.176041,0c0.145321,-0.000561 0.262981,-0.11824 0.263538,-0.263552c0.00053,-0.1206 -0.080757,-0.226219 -0.197399,-0.25684c0.00008,-0.800339 0,-1.59873 0,-2.398819c0.116642,-0.030621 0.197819,-0.13624 0.197399,-0.25683c-0.000519,-0.145321 -0.118217,-0.26298 -0.263538,-0.26355l-3.176041,0zm-8.001579,0.529169l0.859379,0l0,0.926041l-0.859379,0l0,-0.926041zm1.38855,0l0.861439,0l0,0.926041l-0.861439,0l0,-0.926041zm7.07605,0l0.859379,0l0,0.926041l-0.859379,0l0,-0.926041zm1.38855,0l0.861439,0l0,0.926041l-0.861439,0l0,-0.926041zm-3.16983,0.006201l0,6.078179l-2.648418,0l0,-6.078179l2.648418,0zm-6.683319,1.449009l0.859379,0l0,0.926041l-0.859379,0l0,-0.926041zm1.38855,0l0.861439,0l0,0.926041l-0.861439,0l0,-0.926041zm7.07605,0l0.859379,0l0,0.926041l-0.859379,0l0,-0.926041zm1.38855,0l0.861439,0l0,0.926041l-0.861439,0l0,-0.926041zm-3.699001,1.9823c-0.146927,-0.00058 -0.26619,0.11869 -0.265617,0.265621l0,0.264071c-0.00053,0.146929 0.11869,0.26619 0.265617,0.26561c0.146133,-0.00058 0.264122,-0.11949 0.26355,-0.26561l0,-0.264071c0.00053,-0.14613 -0.117428,-0.265051 -0.26355,-0.265621zm-5.951057,1.049042c-0.00053,0.146929 0.118679,0.26619 0.265617,0.26561c0.146122,-0.00058 0.264122,-0.11949 0.26355,-0.26561c0,-0.078741 -0.007698,-0.153761 -0.022228,-0.2248c0.153099,-0.069672 0.336868,-0.078072 0.48885,-0.02532c0.11256,0.03907 0.205509,0.098249 0.26511,0.19121c-0.112228,0.03364 -0.18898,0.137079 -0.188618,0.25424c0.000526,0.145319 0.118229,0.262989 0.26355,0.26355c0.39991,0 0.524647,0.2243 0.535358,0.451139c0.005402,0.11342 -0.031281,0.220541 -0.096119,0.295071c-0.06485,0.074539 -0.154491,0.128679 -0.324013,0.128679c-0.14632,-0.000589 -0.265327,0.11773 -0.26561,0.26406l0,1.05834l-3.176037,0l0,-0.79272l2.382797,0c0.146332,-0.00029 0.264641,-0.11929 0.264072,-0.26562c-0.000271,-0.14572 -0.118343,-0.26378 -0.264072,-0.26406l-2.646351,0c-0.16951,0 -0.261227,-0.05414 -0.326077,-0.128679c-0.06485,-0.074541 -0.100964,-0.18165 -0.0956,-0.295071c0.010719,-0.226839 0.134937,-0.451139 0.534859,-0.451139c0.146118,0.000589 0.265041,-0.11742 0.26561,-0.26355c0.00053,-0.1164 -0.075321,-0.2194 -0.18655,-0.253731c0.05991,-0.09094 0.152481,-0.14999 0.266651,-0.18965c0.155029,-0.05385 0.342739,-0.046289 0.49765,0.02067c-0.0159,0.07477 -0.024792,0.153891 -0.024792,0.23719c0.00053,0.145319 0.118229,0.262989 0.26355,0.26355c0.145321,-0.000549 0.262981,-0.118231 0.263542,-0.26355c0,-0.376791 0.21529,-0.478519 0.398949,-0.478519c0.190258,-0.000582 0.396351,0.096859 0.396351,0.468699l0,0.000011zm9.126598,1.597829c-0.000259,-0.14633 -0.119289,-0.26464 -0.265621,-0.26407c-0.16951,0 -0.259159,-0.05414 -0.324009,-0.12867c-0.06485,-0.074541 -0.10096,-0.18165 -0.0956,-0.295071c0.010712,-0.226839 0.134941,-0.451139 0.534851,-0.451139c0.145519,-0.00029 0.2635,-0.118031 0.264069,-0.26355c0.000271,-0.117161 -0.076389,-0.22061 -0.188618,-0.25425c0.059597,-0.092941 0.152027,-0.15213 0.264587,-0.1912c0.152012,-0.052761 0.33625,-0.04439 0.489372,0.02532c-0.01453,0.071039 -0.022732,0.146049 -0.022732,0.224789c-0.00053,0.14633 0.117741,0.265341 0.264072,0.265621c0.146927,0.00058 0.26619,-0.118681 0.265617,-0.265621c0,-0.360209 0.18483,-0.463179 0.387032,-0.468699c0.208778,0.000608 0.407711,0.101728 0.407711,0.478519c0.00053,0.145319 0.118229,0.262989 0.26355,0.26355c0.14613,0.000589 0.265049,-0.11742 0.265617,-0.26355c0,-0.08367 -0.101559,-0.23822 -0.024529,-0.23822c0.154758,-0.06612 0.341,-0.07324 0.495319,-0.01964c0.114429,0.03974 0.207279,0.098881 0.26717,0.19017c-0.111248,0.03409 -0.187168,0.13685 -0.187069,0.25321c0.00053,0.14613 0.119488,0.26412 0.265621,0.26355c0.39991,0 0.524647,0.2243 0.53537,0.45113c0.005398,0.11342 -0.031281,0.220539 -0.096123,0.29508c-0.06485,0.074539 -0.15657,0.12867 -0.32608,0.12867l-2.646347,0c-0.145523,0.00058 -0.263271,0.11855 -0.26355,0.26407c-0.00053,0.14612 0.11742,0.26504 0.26355,0.26562l2.382797,0l0,0.79271l-3.176037,0l0.000008,-1.058331zm-2.380711,0.52917c0.148151,0 0.26355,0.11541 0.26355,0.26355l0,0.265611l-3.706749,0l0,-0.265611c0,-0.14814 0.11541,-0.26355 0.26355,-0.26355l3.179649,0z" fill="#000000" id="path21754" stroke-linecap="round" stroke-linejoin="round" stroke-width="0.268349"/>
    </g>
   </g>
   <path d="m27.095819,44.742741l0,-11.302429l4.921259,0l4.921272,0l0,11.302429l0,11.302418l-4.921272,0l-4.921259,0l0,-11.302418zm8.315542,4.351299c0.217949,-0.10342 0.474358,-0.398769 0.53463,-0.61581c0.078857,-0.283981 0.06403,-1.377689 -0.02198,-1.621471c-0.302773,-0.858139 -1.52557,-0.878727 -1.87941,-0.031647c-0.103832,0.248558 -0.103912,1.473057 -0.000103,1.721928c0.089943,0.21563 0.327103,0.471142 0.51564,0.555542c0.196171,0.087818 0.65794,0.083179 0.851242,-0.008499l-0.000019,-0.000042z" fill="#ce9232" fill-rule="evenodd" id="path892" stroke="#ce9232" stroke-miterlimit="4" stroke-width="0.1" transform="translate(2.4835629,276.88095)"/>
   <path d="m5.19385,25.20912c-0.18363,-0.202909 -1.22026,-2.05949 -1.22184,-2.18828c-0.00089,-0.07267 0.039,-0.17005 0.08865,-0.21641c0.04964,-0.04636 1.13926,-0.68895 2.42138,-1.42799c1.28212,-0.73904 7.49139,-4.32881 13.79839,-7.97726l11.467251,-6.633551l0.282558,0.00139l0.282562,0.00139l13.82193,7.99482c7.602058,4.397149 13.848419,8.02945 13.880787,8.071769c0.032383,0.04232 0.058872,0.1294 0.058872,0.193491c0,0.108829 -1.051849,2.003531 -1.212902,2.184811c-0.11858,0.13348 -0.286907,0.09709 -0.739029,-0.159721c-0.234459,-0.133179 -6.06337,-3.499599 -12.95314,-7.48094c-6.889778,-3.981339 -12.596878,-7.27483 -12.682449,-7.318879c-0.260578,-0.13412 -0.5737,-0.14766 -0.8267,-0.03575c-0.121429,0.05371 -6.042799,3.46232 -13.158609,7.57468c-7.35929,4.253069 -12.99916,7.484301 -13.08007,7.49391c-0.09799,0.011641 -0.1688,-0.012461 -0.22764,-0.077471l0,-0.00001z" fill="#8aae5a" fill-rule="evenodd" id="path894" stroke="#8aae5a" stroke-linejoin="round" stroke-miterlimit="4" stroke-width="0.2" transform="translate(2.4835629,276.88095)"/>
   <path d="m42.882809,4.87885l0,-0.883l3.932301,0l3.932312,0l0,0.883l0,0.883l-3.932312,0l-3.932301,0l0,-0.883z" fill="#8aae5a" fill-rule="evenodd" id="path896" stroke="#8aae5a" stroke-miterlimit="4" stroke-width="0.1" transform="translate(2.4835629,276.88095)"/>
  </g>
 </g>
</svg>